<svg aria-roledescription="block" role="graphics-document document" viewBox="-5 -331 1202.078125 662" style="max-width: 1202.078125px;" xmlns="http://www.w3.org/2000/svg" width="100%" id="container"><style>#container{font-family:"trebuchet ms",verdana,arial,sans-serif;font-size:16px;fill:#333;}@keyframes edge-animation-frame{from{stroke-dashoffset:0;}}@keyframes dash{to{stroke-dashoffset:0;}}#container .edge-animation-slow{stroke-dasharray:9,5!important;stroke-dashoffset:900;animation:dash 50s linear infinite;stroke-linecap:round;}#container .edge-animation-fast{stroke-dasharray:9,5!important;stroke-dashoffset:900;animation:dash 20s linear infinite;stroke-linecap:round;}#container .error-icon{fill:#552222;}#container .error-text{fill:#552222;stroke:#552222;}#container .edge-thickness-normal{stroke-width:1px;}#container .edge-thickness-thick{stroke-width:3.5px;}#container .edge-pattern-solid{stroke-dasharray:0;}#container .edge-thickness-invisible{stroke-width:0;fill:none;}#container .edge-pattern-dashed{stroke-dasharray:3;}#container .edge-pattern-dotted{stroke-dasharray:2;}#container .marker{fill:#333333;stroke:#333333;}#container .marker.cross{stroke:#333333;}#container svg{font-family:"trebuchet ms",verdana,arial,sans-serif;font-size:16px;}#container p{margin:0;}#container .label{font-family:"trebuchet ms",verdana,arial,sans-serif;color:#333;}#container .cluster-label text{fill:#333;}#container .cluster-label span,#container p{color:#333;}#container .label text,#container span,#container p{fill:#333;color:#333;}#container .node rect,#container .node circle,#container .node ellipse,#container .node polygon,#container .node path{fill:#ECECFF;stroke:#9370DB;stroke-width:1px;}#container .flowchart-label text{text-anchor:middle;}#container .node .label{text-align:center;}#container .node.clickable{cursor:pointer;}#container .arrowheadPath{fill:#333333;}#container .edgePath .path{stroke:#333333;stroke-width:2.0px;}#container .flowchart-link{stroke:#333333;fill:none;}#container .edgeLabel{background-color:rgba(232,232,232, 0.8);text-align:center;}#container .edgeLabel rect{opacity:0.5;background-color:rgba(232,232,232, 0.8);fill:rgba(232,232,232, 0.8);}#container .labelBkg{background-color:rgba(232, 232, 232, 0.5);}#container .node .cluster{fill:rgba(255, 255, 222, 0.5);stroke:rgba(170, 170, 51, 0.2);box-shadow:rgba(50, 50, 93, 0.25) 0px 13px 27px -5px,rgba(0, 0, 0, 0.3) 0px 8px 16px -8px;stroke-width:1px;}#container .cluster text{fill:#333;}#container .cluster span,#container p{color:#333;}#container div.mermaidTooltip{position:absolute;text-align:center;max-width:200px;padding:2px;font-family:"trebuchet ms",verdana,arial,sans-serif;font-size:12px;background:hsl(80, 100%, 96.2745098039%);border:1px solid #aaaa33;border-radius:2px;pointer-events:none;z-index:100;}#container .flowchartTitleText{text-anchor:middle;font-size:18px;fill:#333;}#container :root{--mermaid-font-family:"trebuchet ms",verdana,arial,sans-serif;}</style><g></g><marker orient="auto" markerHeight="12" markerWidth="12" markerUnits="userSpaceOnUse" refY="5" refX="6" viewBox="0 0 10 10" class="marker block" id="container_block-pointEnd"><path style="stroke-width: 1; stroke-dasharray: 1, 0;" class="arrowMarkerPath" d="M 0 0 L 10 5 L 0 10 z"></path></marker><marker orient="auto" markerHeight="12" markerWidth="12" markerUnits="userSpaceOnUse" refY="5" refX="4.5" viewBox="0 0 10 10" class="marker block" id="container_block-pointStart"><path style="stroke-width: 1; stroke-dasharray: 1, 0;" class="arrowMarkerPath" d="M 0 5 L 10 10 L 10 0 z"></path></marker><marker orient="auto" markerHeight="11" markerWidth="11" markerUnits="userSpaceOnUse" refY="5" refX="11" viewBox="0 0 10 10" class="marker block" id="container_block-circleEnd"><circle style="stroke-width: 1; stroke-dasharray: 1, 0;" class="arrowMarkerPath" r="5" cy="5" cx="5"></circle></marker><marker orient="auto" markerHeight="11" markerWidth="11" markerUnits="userSpaceOnUse" refY="5" refX="-1" viewBox="0 0 10 10" class="marker block" id="container_block-circleStart"><circle style="stroke-width: 1; stroke-dasharray: 1, 0;" class="arrowMarkerPath" r="5" cy="5" cx="5"></circle></marker><marker orient="auto" markerHeight="11" markerWidth="11" markerUnits="userSpaceOnUse" refY="5.2" refX="12" viewBox="0 0 11 11" class="marker cross block" id="container_block-crossEnd"><path style="stroke-width: 2; stroke-dasharray: 1, 0;" class="arrowMarkerPath" d="M 1,1 l 9,9 M 10,1 l -9,9"></path></marker><marker orient="auto" markerHeight="11" markerWidth="11" markerUnits="userSpaceOnUse" refY="5.2" refX="-1" viewBox="0 0 11 11" class="marker cross block" id="container_block-crossStart"><path style="stroke-width: 2; stroke-dasharray: 1, 0;" class="arrowMarkerPath" d="M 1,1 l 9,9 M 10,1 l -9,9"></path></marker><g class="block"><g transform="translate(596.0390625, -264)" id="INIT" class="node default default flowchart-label"><rect height="124" width="1192.078125" y="-62" x="-596.0390625" ry="0" rx="0" style="" class="basic cluster composite label-container"></rect><g transform="translate(-45.5546875, -9.5)" style="" class="label"><rect></rect><foreignObject height="19" width="91.109375"><div style="display: inline-block; white-space: nowrap;" xmlns="http://www.w3.org/1999/xhtml"><span class="nodeLabel">Initialization</span></div></foreignObject></g></g><g transform="translate(122.4078125, -264)" id="HttpAbs" class="node default default flowchart-label"><rect height="108" width="228.815625" y="-54" x="-114.4078125" ry="0" rx="0" style="" class="basic label-container"></rect><g transform="translate(-88.0078125, -40.5)" style="" class="label"><rect></rect><foreignObject height="81" width="176.015625"><div style="display: inline-block; white-space: nowrap;" xmlns="http://www.w3.org/1999/xhtml"><span class="nodeLabel">HttpAbs<br/>━━━━━━━━━━━<br/>http_init()<br/>http_poll()</span></div></foreignObject></g></g><g transform="translate(1069.6703125, -264)" id="lwip" class="node default default flowchart-label"><rect height="108" width="228.815625" y="-54" x="-114.4078125" ry="0" rx="0" style="" class="basic label-container"></rect><g transform="translate(-88.0078125, -40.5)" style="" class="label"><rect></rect><foreignObject height="81" width="176.015625"><div style="display: inline-block; white-space: nowrap;" xmlns="http://www.w3.org/1999/xhtml"><span class="nodeLabel">lwip.c<br/>━━━━━━━━━━━<br/>MX_LWIP_Init()<br/>Network setup</span></div></foreignObject></g></g><g transform="translate(596.0390625, -132)" id="SERVICES" class="node default default flowchart-label"><rect height="124" width="1192.078125" y="-62" x="-596.0390625" ry="0" rx="0" style="" class="basic cluster composite label-container"></rect><g transform="translate(-48.2578125, -9.5)" style="" class="label"><rect></rect><foreignObject height="19" width="96.515625"><div style="display: inline-block; white-space: nowrap;" xmlns="http://www.w3.org/1999/xhtml"><span class="nodeLabel">LwIP Services</span></div></foreignObject></g></g><g transform="translate(152.009765625, -132)" id="HTTPd" class="node default default flowchart-label"><rect height="108" width="288.01953125" y="-54" x="-144.009765625" ry="0" rx="0" style="" class="basic label-container"></rect><g transform="translate(-88.0078125, -40.5)" style="" class="label"><rect></rect><foreignObject height="81" width="176.015625"><div style="display: inline-block; white-space: nowrap;" xmlns="http://www.w3.org/1999/xhtml"><span class="nodeLabel">httpd<br/>━━━━━━━━━━━<br/>Web server<br/>Port 80</span></div></foreignObject></g></g><g transform="translate(448.029296875, -132)" id="TCPEcho" class="node default default flowchart-label"><rect height="108" width="288.01953125" y="-54" x="-144.009765625" ry="0" rx="0" style="" class="basic label-container"></rect><g transform="translate(-88.0078125, -40.5)" style="" class="label"><rect></rect><foreignObject height="81" width="176.015625"><div style="display: inline-block; white-space: nowrap;" xmlns="http://www.w3.org/1999/xhtml"><span class="nodeLabel">TCP Echo Server<br/>━━━━━━━━━━━<br/>Echo service<br/>Port 7</span></div></foreignObject></g></g><g transform="translate(744.048828125, -132)" id="DHCP" class="node default default flowchart-label"><rect height="108" width="288.01953125" y="-54" x="-144.009765625" ry="0" rx="0" style="" class="basic label-container"></rect><g transform="translate(-88.0078125, -40.5)" style="" class="label"><rect></rect><foreignObject height="81" width="176.015625"><div style="display: inline-block; white-space: nowrap;" xmlns="http://www.w3.org/1999/xhtml"><span class="nodeLabel">DHCP Client<br/>━━━━━━━━━━━<br/>IP assignment<br/>Fallback to static</span></div></foreignObject></g></g><g transform="translate(596.0390625, 0)" id="STACK" class="node default default flowchart-label"><rect height="124" width="1192.078125" y="-62" x="-596.0390625" ry="0" rx="0" style="" class="basic cluster composite label-container"></rect><g transform="translate(-37.34375, -9.5)" style="" class="label"><rect></rect><foreignObject height="19" width="74.6875"><div style="display: inline-block; white-space: nowrap;" xmlns="http://www.w3.org/1999/xhtml"><span class="nodeLabel">LwIP stack</span></div></foreignObject></g></g><g transform="translate(596.0390625, 0)" id="LwIPCore" class="node default default flowchart-label"><rect height="108" width="1176.078125" y="-54" x="-588.0390625" ry="0" rx="0" style="" class="basic label-container"></rect><g transform="translate(-88.0078125, -40.5)" style="" class="label"><rect></rect><foreignObject height="81" width="176.015625"><div style="display: inline-block; white-space: nowrap;" xmlns="http://www.w3.org/1999/xhtml"><span class="nodeLabel">LwIP Core<br/>━━━━━━━━━━━<br/>TCP/UDP/IP<br/>pbuf management</span></div></foreignObject></g></g><g transform="translate(596.0390625, 132)" id="DRIVER" class="node default default flowchart-label"><rect height="124" width="1192.078125" y="-62" x="-596.0390625" ry="0" rx="0" style="" class="basic cluster composite label-container"></rect><g transform="translate(-54.2734375, -9.5)" style="" class="label"><rect></rect><foreignObject height="19" width="108.546875"><div style="display: inline-block; white-space: nowrap;" xmlns="http://www.w3.org/1999/xhtml"><span class="nodeLabel">Network Driver</span></div></foreignObject></g></g><g transform="translate(201.34635416666666, 132)" id="app_ethernet" class="node default default flowchart-label"><rect height="108" width="386.6927083333333" y="-54" x="-193.34635416666666" ry="0" rx="0" style="" class="basic label-container"></rect><g transform="translate(-88.0078125, -50)" style="" class="label"><rect></rect><foreignObject height="100" width="176.015625"><div style="display: inline-block; white-space: nowrap;" xmlns="http://www.w3.org/1999/xhtml"><span class="nodeLabel">app_ethernet<br/>━━━━━━━━━━━<br/>Link monitoring<br/>DHCP state machine<br/>Periodic handlers</span></div></foreignObject></g></g><g transform="translate(990.7317708333333, 132)" id="ethernetif" class="node default default flowchart-label"><rect height="108" width="386.6927083333333" y="-54" x="-193.34635416666666" ry="0" rx="0" style="" class="basic label-container"></rect><g transform="translate(-88.0078125, -50)" style="" class="label"><rect></rect><foreignObject height="100" width="176.015625"><div style="display: inline-block; white-space: nowrap;" xmlns="http://www.w3.org/1999/xhtml"><span class="nodeLabel">ethernetif<br/>━━━━━━━━━━━<br/>Low-level I/O<br/>DMA buffers<br/>ethernetif_input()</span></div></foreignObject></g></g><g transform="translate(596.0390625, 264)" id="HAL" class="node default default flowchart-label"><rect height="124" width="1192.078125" y="-62" x="-596.0390625" ry="0" rx="0" style="" class="basic cluster composite label-container"></rect><g transform="translate(-34.625, -9.5)" style="" class="label"><rect></rect><foreignObject height="19" width="69.25"><div style="display: inline-block; white-space: nowrap;" xmlns="http://www.w3.org/1999/xhtml"><span class="nodeLabel">Hardware</span></div></foreignObject></g></g><g transform="translate(596.0390625, 264)" id="ETHHAL" class="node default default flowchart-label"><rect height="108" width="1176.078125" y="-54" x="-588.0390625" ry="0" rx="0" style="" class="basic label-container"></rect><g transform="translate(-88.0078125, -40.5)" style="" class="label"><rect></rect><foreignObject height="81" width="176.015625"><div style="display: inline-block; white-space: nowrap;" xmlns="http://www.w3.org/1999/xhtml"><span class="nodeLabel">ETH HAL<br/>━━━━━━━━━━━<br/>PHY management<br/>MAC control</span></div></foreignObject></g></g><path marker-end="url(#container_block-pointEnd)" class="edge-thickness-normal edge-pattern-solid flowchart-link LS-a1 LE-b1" id="1-HttpAbs-lwip" d="M236.816,-264L296.686,-264C356.557,-264,476.298,-264,595.372,-264C714.447,-264,832.855,-264,892.059,-264L951.262,-264"></path><path marker-end="url(#container_block-pointEnd)" class="edge-thickness-normal edge-pattern-solid flowchart-link LS-a1 LE-b1" id="1-HttpAbs-HTTPd" d="M134.518,-210L134.966,-208C135.415,-206,136.312,-202,137.063,-198.651C137.814,-195.301,138.419,-192.602,138.722,-191.253L139.025,-189.903"></path><path marker-end="url(#container_block-pointEnd)" class="edge-thickness-normal edge-pattern-solid flowchart-link LS-a1 LE-b1" id="1-HttpAbs-TCPEcho" d="M236.816,-217.622L244.883,-214.351C252.95,-211.081,269.084,-204.541,281.467,-199.521C293.85,-194.501,302.482,-191.002,306.798,-189.252L311.114,-187.503"></path><path marker-end="url(#container_block-pointEnd)" class="edge-thickness-normal edge-pattern-solid flowchart-link LS-a1 LE-b1" id="1-lwip-DHCP" d="M955.262,-217.622L947.195,-214.351C939.128,-211.081,922.994,-204.541,910.611,-199.521C898.228,-194.501,889.596,-191.002,885.28,-189.252L880.965,-187.503"></path><path marker-end="url(#container_block-pointEnd)" class="edge-thickness-normal edge-pattern-solid flowchart-link LS-a1 LE-b1" id="1-lwip-ethernetif" d="M1058.906,-210L1054.122,-186C1049.338,-162,1039.769,-114,1030.331,-66.654C1020.893,-19.308,1011.586,27.385,1006.932,50.731L1002.278,74.077"></path><path marker-end="url(#container_block-pointEnd)" class="edge-thickness-normal edge-pattern-solid flowchart-link LS-a1 LE-b1" id="1-HTTPd-LwIPCore" d="M296.02,-89.189L309.02,-85.324C322.021,-81.459,348.023,-73.73,367.112,-68.055C386.202,-62.38,398.379,-58.76,404.468,-56.95L410.557,-55.14"></path><path marker-end="url(#container_block-pointEnd)" class="edge-thickness-normal edge-pattern-solid flowchart-link LS-a1 LE-b1" id="1-TCPEcho-LwIPCore" d="M508.579,-78L510.821,-76C513.064,-74,517.549,-70,521.537,-66.444C525.524,-62.887,529.014,-59.775,530.759,-58.219L532.504,-56.662"></path><path marker-end="url(#container_block-pointEnd)" class="edge-thickness-normal edge-pattern-solid flowchart-link LS-a1 LE-b1" id="1-DHCP-LwIPCore" d="M683.499,-78L681.257,-76C679.014,-74,674.529,-70,670.541,-66.444C666.554,-62.887,663.064,-59.775,661.319,-58.219L659.574,-56.662"></path><path marker-end="url(#container_block-pointEnd)" class="edge-thickness-normal edge-pattern-solid flowchart-link LS-a1 LE-b1" id="1-LwIPCore-ethernetif" d="M757.504,54L763.484,56C769.465,58,781.425,62,792.753,65.789C804.081,69.577,814.777,73.154,820.125,74.943L825.473,76.731"></path><path marker-end="url(#container_block-pointEnd)" class="edge-thickness-normal edge-pattern-solid flowchart-link LS-a1 LE-b1" id="1-ethernetif-app_ethernet" d="M797.385,132L763.828,132C730.27,132,663.155,132,596.706,132C530.257,132,464.475,132,431.584,132L398.693,132"></path><path marker-end="url(#container_block-pointEnd)" class="edge-thickness-normal edge-pattern-solid flowchart-link LS-a1 LE-b1" id="1-app_ethernet-ethernetif" d="M394.693,132L428.25,132C461.808,132,528.924,132,595.372,132C661.821,132,727.603,132,760.494,132L793.385,132"></path><path marker-end="url(#container_block-pointEnd)" class="edge-thickness-normal edge-pattern-solid flowchart-link LS-a1 LE-b1" id="1-ethernetif-ETHHAL" d="M829.267,186L823.286,188C817.306,190,805.346,194,794.018,197.789C782.69,201.577,771.994,205.154,766.646,206.943L761.298,208.731"></path></g></svg>